<svg xmlns="http://www.w3.org/2000/svg" xmlns:xlink="http://www.w3.org/1999/xlink" width="150" zoomAndPan="magnify" viewBox="0 0 112.5 30.000001" height="40" preserveAspectRatio="xMidYMid meet" version="1.0"><defs><g/><clipPath id="id1"><path d="M 1.574219 0 L 110.445312 0 L 110.445312 29.03125 L 1.574219 29.03125 Z M 1.574219 0 " clip-rule="nonzero"/></clipPath><clipPath id="id2"><path d="M 3.03125 2.660156 L 27.226562 2.660156 L 27.226562 26.855469 L 3.03125 26.855469 Z M 3.03125 2.660156 " clip-rule="nonzero"/></clipPath><clipPath id="id3"><path d="M 9.835938 11.042969 L 18.621094 11.042969 L 18.621094 22.019531 L 9.835938 22.019531 Z M 9.835938 11.042969 " clip-rule="nonzero"/></clipPath><clipPath id="id4"><path d="M 8.773438 9.253906 L 10.96875 9.253906 L 10.96875 15.839844 L 8.773438 15.839844 Z M 8.773438 9.253906 " clip-rule="nonzero"/></clipPath><clipPath id="id5"><path d="M 8.773438 16.925781 L 10.96875 16.925781 L 10.96875 21.09375 L 8.773438 21.09375 Z M 8.773438 16.925781 " clip-rule="nonzero"/></clipPath><clipPath id="id6"><path d="M 12.011719 14.757812 L 14.207031 14.757812 L 14.207031 21.125 L 12.011719 21.125 Z M 12.011719 14.757812 " clip-rule="nonzero"/></clipPath><clipPath id="id7"><path d="M 15.347656 12.136719 L 17.542969 12.136719 L 17.542969 21.136719 L 15.347656 21.136719 Z M 15.347656 12.136719 " clip-rule="nonzero"/></clipPath><clipPath id="id8"><path d="M 18.664062 9.253906 L 20.859375 9.253906 L 20.859375 21.109375 L 18.664062 21.109375 Z M 18.664062 9.253906 " clip-rule="nonzero"/></clipPath><clipPath id="id9"><path d="M 34.585938 2.304688 L 36.046875 2.304688 L 36.046875 27.09375 L 34.585938 27.09375 Z M 34.585938 2.304688 " clip-rule="nonzero"/></clipPath></defs><g clip-path="url(#id1)"><path fill="#ffffff" d="M 1.574219 0 L 110.925781 0 L 110.925781 36.453125 L 1.574219 36.453125 Z M 1.574219 0 " fill-opacity="1" fill-rule="nonzero"/><path fill="#ffffff" d="M 1.574219 0 L 110.925781 0 L 110.925781 29.160156 L 1.574219 29.160156 Z M 1.574219 0 " fill-opacity="1" fill-rule="nonzero"/><path fill="#ffffff" d="M 1.574219 0 L 110.925781 0 L 110.925781 29.160156 L 1.574219 29.160156 Z M 1.574219 0 " fill-opacity="1" fill-rule="nonzero"/><path fill="#ffffff" d="M 1.574219 0 L 110.925781 0 L 110.925781 29.160156 L 1.574219 29.160156 Z M 1.574219 0 " fill-opacity="1" fill-rule="nonzero"/></g><g fill="#000000" fill-opacity="1"><g transform="translate(42.908318, 10.882886)"><g><path d="M 4.890625 -0.382812 L 5.242188 -0.953125 C 4.507812 -1.203125 3.289062 -1.464844 2.316406 -1.566406 L 1.925781 -1.011719 C 2.878906 -0.902344 4.046875 -0.640625 4.769531 -0.382812 L 1.355469 -0.382812 L 1.355469 -2.515625 C 1.480469 -2.34375 1.609375 -2.097656 1.667969 -1.933594 C 2.054688 -2.027344 2.460938 -2.148438 2.847656 -2.300781 L 2.582031 -1.933594 C 3.1875 -1.804688 3.953125 -1.542969 4.378906 -1.347656 L 4.722656 -1.875 C 4.320312 -2.054688 3.640625 -2.265625 3.074219 -2.386719 C 3.265625 -2.472656 3.460938 -2.5625 3.648438 -2.660156 C 4.207031 -2.375 4.816406 -2.15625 5.445312 -2.027344 C 5.523438 -2.179688 5.683594 -2.410156 5.828125 -2.574219 L 5.828125 -0.382812 Z M 2.914062 -5.0625 C 2.5625 -4.53125 1.976562 -4.023438 1.390625 -3.691406 C 1.550781 -3.578125 1.824219 -3.324219 1.953125 -3.1875 C 2.097656 -3.28125 2.25 -3.390625 2.394531 -3.511719 C 2.546875 -3.367188 2.71875 -3.230469 2.90625 -3.09375 C 2.417969 -2.898438 1.875 -2.75 1.355469 -2.648438 L 1.355469 -5.0625 Z M 4.328125 -3.878906 C 4.117188 -3.714844 3.886719 -3.554688 3.613281 -3.425781 C 3.355469 -3.554688 3.128906 -3.714844 2.941406 -3.878906 Z M 5.828125 -2.683594 C 5.332031 -2.777344 4.824219 -2.90625 4.371094 -3.078125 C 4.863281 -3.417969 5.285156 -3.808594 5.574219 -4.253906 L 5.09375 -4.542969 L 4.96875 -4.515625 L 3.398438 -4.515625 C 3.484375 -4.625 3.5625 -4.738281 3.636719 -4.847656 L 3.023438 -5.0625 L 5.828125 -5.0625 Z M 0.535156 -5.835938 L 0.535156 0.632812 L 1.355469 0.632812 L 1.355469 0.375 L 5.828125 0.375 L 5.828125 0.632812 L 6.695312 0.632812 L 6.695312 -5.835938 Z M 0.535156 -5.835938 "/></g></g></g><g fill="#000000" fill-opacity="1"><g transform="translate(50.121296, 10.882886)"><g><path d="M 6.066406 -1.296875 C 6.554688 -1.296875 6.765625 -1.484375 6.859375 -2.15625 C 6.636719 -2.199219 6.320312 -2.324219 6.175781 -2.429688 C 6.152344 -2.0625 6.117188 -2.003906 5.980469 -2.003906 L 5.53125 -2.003906 C 5.375 -2.003906 5.34375 -2.035156 5.34375 -2.222656 L 5.34375 -2.503906 C 5.757812 -2.609375 6.226562 -2.761719 6.613281 -2.921875 L 6.125 -3.535156 C 5.914062 -3.417969 5.632812 -3.296875 5.34375 -3.179688 L 5.34375 -3.75 L 4.566406 -3.75 L 4.566406 -2.214844 C 4.566406 -1.925781 4.585938 -1.714844 4.667969 -1.578125 C 4.429688 -1.804688 4.226562 -2.042969 4.0625 -2.292969 L 4.0625 -3.894531 L 6.742188 -3.894531 L 6.742188 -4.667969 L 4.0625 -4.667969 L 4.0625 -5.121094 C 4.839844 -5.179688 5.582031 -5.265625 6.203125 -5.375 L 5.828125 -6.109375 C 4.550781 -5.894531 2.589844 -5.757812 0.894531 -5.710938 C 0.972656 -5.519531 1.066406 -5.207031 1.082031 -4.992188 C 1.738281 -5 2.453125 -5.019531 3.152344 -5.054688 L 3.152344 -4.667969 L 0.460938 -4.667969 L 0.460938 -3.894531 L 3.152344 -3.894531 L 3.152344 -2.308594 C 3.007812 -2.089844 2.84375 -1.882812 2.640625 -1.679688 L 2.640625 -3.730469 L 1.839844 -3.730469 L 1.839844 -3.347656 L 0.683594 -3.347656 L 0.683594 -2.675781 L 1.839844 -2.675781 L 1.839844 -2.277344 C 1.320312 -2.222656 0.824219 -2.164062 0.453125 -2.128906 L 0.597656 -1.421875 C 0.972656 -1.484375 1.40625 -1.550781 1.839844 -1.621094 L 1.839844 -1.363281 L 2.273438 -1.363281 C 1.695312 -0.894531 0.972656 -0.519531 0.1875 -0.304688 C 0.375 -0.128906 0.621094 0.203125 0.75 0.417969 C 1.679688 0.09375 2.511719 -0.453125 3.152344 -1.167969 L 3.152344 0.621094 L 4.0625 0.621094 L 4.0625 -1.175781 C 4.695312 -0.445312 5.511719 0.117188 6.449219 0.433594 C 6.570312 0.210938 6.816406 -0.121094 7.003906 -0.289062 C 6.203125 -0.496094 5.480469 -0.886719 4.90625 -1.371094 C 5.019531 -1.320312 5.1875 -1.296875 5.402344 -1.296875 Z M 6.066406 -1.296875 "/></g></g></g><g fill="#000000" fill-opacity="1"><g transform="translate(57.334273, 10.882886)"><g><path d="M 5.144531 -4.636719 C 4.925781 -4.957031 4.421875 -5.378906 4.03125 -5.675781 L 3.46875 -5.1875 C 3.875 -4.875 4.34375 -4.414062 4.542969 -4.105469 Z M 4.941406 -2.75 C 4.703125 -3.058594 4.167969 -3.503906 3.757812 -3.792969 L 3.210938 -3.304688 C 3.628906 -2.980469 4.132812 -2.515625 4.355469 -2.199219 Z M 3.117188 -2.183594 C 2.980469 -2.351562 2.386719 -3.03125 2.179688 -3.230469 L 2.179688 -3.289062 L 3.128906 -3.289062 L 3.128906 -4.089844 L 2.179688 -4.089844 L 2.179688 -5.078125 C 2.511719 -5.148438 2.828125 -5.238281 3.109375 -5.34375 L 2.625 -6.042969 C 2.027344 -5.800781 1.125 -5.574219 0.304688 -5.453125 C 0.398438 -5.265625 0.503906 -4.984375 0.535156 -4.789062 C 0.800781 -4.816406 1.066406 -4.863281 1.347656 -4.90625 L 1.347656 -4.089844 L 0.257812 -4.089844 L 0.257812 -3.289062 L 1.234375 -3.289062 C 0.972656 -2.589844 0.570312 -1.816406 0.164062 -1.355469 C 0.296875 -1.140625 0.484375 -0.785156 0.5625 -0.539062 C 0.84375 -0.902344 1.109375 -1.414062 1.347656 -1.96875 L 1.347656 0.628906 L 2.179688 0.628906 L 2.179688 -2.300781 C 2.351562 -2.011719 2.523438 -1.710938 2.609375 -1.507812 Z M 7.019531 -1.347656 L 6.882812 -2.148438 L 6.167969 -2.027344 L 6.167969 -6.109375 L 5.324219 -6.109375 L 5.324219 -1.882812 L 3.007812 -1.484375 L 3.144531 -0.671875 L 5.324219 -1.046875 L 5.324219 0.621094 L 6.167969 0.621094 L 6.167969 -1.199219 Z M 7.019531 -1.347656 "/></g></g></g><g fill="#000000" fill-opacity="1"><g transform="translate(64.54725, 10.882886)"><g><path d="M 2.648438 -3.042969 L 1.984375 -2.878906 L 1.984375 -3.945312 L 2.691406 -3.945312 L 2.691406 -4.738281 L 1.984375 -4.738281 L 1.984375 -6.109375 L 1.132812 -6.109375 L 1.132812 -4.738281 L 0.304688 -4.738281 L 0.304688 -3.945312 L 1.132812 -3.945312 L 1.132812 -2.667969 C 0.785156 -2.582031 0.476562 -2.511719 0.210938 -2.460938 L 0.433594 -1.644531 L 1.132812 -1.816406 L 1.132812 -0.332031 C 1.132812 -0.222656 1.105469 -0.1875 0.996094 -0.1875 C 0.902344 -0.1875 0.605469 -0.1875 0.324219 -0.195312 C 0.425781 0.0273438 0.535156 0.367188 0.570312 0.585938 C 1.074219 0.585938 1.421875 0.5625 1.660156 0.433594 C 1.902344 0.296875 1.984375 0.09375 1.984375 -0.324219 L 1.984375 -2.046875 C 2.242188 -2.113281 2.503906 -2.183594 2.753906 -2.257812 Z M 5.664062 -2.65625 C 5.445312 -2.164062 5.136719 -1.738281 4.761719 -1.378906 C 4.398438 -1.746094 4.113281 -2.179688 3.910156 -2.65625 Z M 6.203125 -3.460938 L 6.050781 -3.425781 L 5.1875 -3.425781 L 5.1875 -4.292969 L 6.800781 -4.292969 L 6.800781 -5.085938 L 5.1875 -5.085938 L 5.1875 -6.117188 L 4.335938 -6.117188 L 4.335938 -5.085938 L 2.785156 -5.085938 L 2.785156 -4.292969 L 4.335938 -4.292969 L 4.335938 -3.425781 L 2.914062 -3.425781 L 2.914062 -2.65625 L 3.289062 -2.65625 L 3.074219 -2.589844 C 3.332031 -1.925781 3.671875 -1.355469 4.097656 -0.871094 C 3.59375 -0.546875 3.007812 -0.316406 2.375 -0.164062 C 2.53125 0.0234375 2.742188 0.382812 2.835938 0.613281 C 3.535156 0.402344 4.167969 0.117188 4.730469 -0.273438 C 5.230469 0.128906 5.828125 0.425781 6.527344 0.632812 C 6.648438 0.410156 6.894531 0.0664062 7.074219 -0.109375 C 6.433594 -0.265625 5.878906 -0.503906 5.410156 -0.835938 C 6.015625 -1.441406 6.476562 -2.230469 6.75 -3.230469 Z M 6.203125 -3.460938 "/></g></g></g><g clip-path="url(#id2)"><path fill="#036eb8" d="M 15.117188 26.644531 C 8.558594 26.644531 3.21875 21.304688 3.21875 14.742188 C 3.21875 8.183594 8.558594 2.84375 15.117188 2.84375 C 21.679688 2.84375 27.019531 8.183594 27.019531 14.742188 C 27.019531 21.304688 21.679688 26.644531 15.117188 26.644531 Z M 15.117188 5.25 C 9.882812 5.25 5.625 9.507812 5.625 14.742188 C 5.625 19.980469 9.882812 24.238281 15.117188 24.238281 C 20.355469 24.238281 24.613281 19.976562 24.613281 14.742188 C 24.613281 9.507812 20.355469 5.25 15.117188 5.25 Z M 15.117188 5.25 " fill-opacity="1" fill-rule="nonzero"/></g><g clip-path="url(#id3)"><path fill="#ffffff" d="M 9.835938 11.042969 L 18.621094 11.042969 L 18.621094 22.019531 L 9.835938 22.019531 Z M 9.835938 11.042969 " fill-opacity="1" fill-rule="nonzero"/></g><g clip-path="url(#id4)"><path fill="#036eb8" d="M 8.773438 9.253906 L 10.96875 9.253906 L 10.96875 15.839844 L 8.773438 15.839844 Z M 8.773438 9.253906 " fill-opacity="1" fill-rule="nonzero"/></g><g clip-path="url(#id5)"><path fill="#036eb8" d="M 8.773438 16.925781 L 10.96875 16.925781 L 10.96875 21.09375 L 8.773438 21.09375 Z M 8.773438 16.925781 " fill-opacity="1" fill-rule="nonzero"/></g><g clip-path="url(#id6)"><path fill="#036eb8" d="M 12.011719 14.757812 L 14.207031 14.757812 L 14.207031 21.125 L 12.011719 21.125 Z M 12.011719 14.757812 " fill-opacity="1" fill-rule="nonzero"/></g><g clip-path="url(#id7)"><path fill="#036eb8" d="M 15.347656 12.136719 L 17.542969 12.136719 L 17.542969 21.136719 L 15.347656 21.136719 Z M 15.347656 12.136719 " fill-opacity="1" fill-rule="nonzero"/></g><g clip-path="url(#id8)"><path fill="#036eb8" d="M 18.664062 9.253906 L 20.859375 9.253906 L 20.859375 21.109375 L 18.664062 21.109375 Z M 18.664062 9.253906 " fill-opacity="1" fill-rule="nonzero"/></g><g clip-path="url(#id9)"><path fill="#000000" d="M 34.585938 2.304688 L 36.046875 2.304688 L 36.046875 27.09375 L 34.585938 27.09375 Z M 34.585938 2.304688 " fill-opacity="1" fill-rule="nonzero"/></g><g fill="#000000" fill-opacity="1"><g transform="translate(42.471967, 24.469445)"><g><path d="M 0.980469 0 L 4.183594 0 C 6.03125 0 7.503906 -0.773438 7.503906 -2.507812 C 7.503906 -3.636719 6.851562 -4.277344 5.996094 -4.503906 L 5.996094 -4.550781 C 6.679688 -4.8125 7.101562 -5.632812 7.101562 -6.386719 C 7.101562 -8.015625 5.699219 -8.496094 3.945312 -8.496094 L 0.980469 -8.496094 Z M 3.023438 -5.121094 L 3.023438 -6.933594 L 3.867188 -6.933594 C 4.71875 -6.933594 5.121094 -6.679688 5.121094 -6.078125 C 5.121094 -5.496094 4.730469 -5.121094 3.867188 -5.121094 Z M 3.023438 -1.5625 L 3.023438 -3.625 L 4.035156 -3.625 C 5.027344 -3.625 5.519531 -3.339844 5.519531 -2.644531 C 5.519531 -1.914062 5.015625 -1.5625 4.035156 -1.5625 Z M 3.023438 -1.5625 "/></g></g></g><g fill="#000000" fill-opacity="1"><g transform="translate(50.388802, 24.469445)"><g><path d="M 0.980469 0 L 3.023438 0 L 3.023438 -8.496094 L 0.980469 -8.496094 Z M 0.980469 0 "/></g></g></g><g fill="#000000" fill-opacity="1"><g transform="translate(54.375697, 24.469445)"><g><path d="M 0.980469 0 L 2.804688 0 L 2.804688 -2.90625 C 2.804688 -3.75 2.644531 -5.015625 2.542969 -5.847656 L 2.589844 -5.847656 L 3.273438 -3.820312 L 4.425781 -0.71875 L 5.542969 -0.71875 L 6.679688 -3.820312 L 7.386719 -5.847656 L 7.445312 -5.847656 C 7.332031 -5.015625 7.171875 -3.75 7.171875 -2.90625 L 7.171875 0 L 9.03125 0 L 9.03125 -8.496094 L 6.820312 -8.496094 L 5.519531 -4.824219 C 5.359375 -4.332031 5.222656 -3.796875 5.050781 -3.285156 L 4.992188 -3.285156 C 4.835938 -3.796875 4.699219 -4.332031 4.527344 -4.824219 L 3.179688 -8.496094 L 0.980469 -8.496094 Z M 0.980469 0 "/></g></g></g><g fill="#000000" fill-opacity="1"><g transform="translate(64.365716, 24.469445)"><g><path d="M 3.992188 -5.519531 L 3.992188 -7.046875 L 2.976562 -7.046875 L 2.976562 -9.75 L 1.390625 -9.75 L 1.390625 -7.046875 L 0.386719 -7.046875 L 0.386719 -5.519531 L 1.390625 -5.519531 L 1.390625 1.082031 L 2.976562 1.082031 L 2.976562 -5.519531 Z M 3.957031 -5.449219 C 3.796875 -4.480469 3.464844 -3.488281 2.988281 -2.875 C 3.328125 -2.691406 3.945312 -2.304688 4.230469 -2.074219 C 4.742188 -2.816406 5.175781 -3.992188 5.40625 -5.164062 Z M 11.355469 -2.050781 C 11.207031 -2.917969 10.84375 -4.367188 10.523438 -5.460938 L 9.679688 -5.277344 L 9.714844 -6.945312 C 9.714844 -7.136719 9.726562 -7.664062 9.726562 -7.664062 L 7.378906 -7.664062 L 7.378906 -9.714844 L 5.816406 -9.714844 L 5.816406 -7.664062 L 4.265625 -7.664062 L 4.265625 -6.054688 L 5.792969 -6.054688 C 5.699219 -4.070312 5.210938 -1.722656 3.160156 -0.0585938 C 3.546875 0.183594 4.140625 0.742188 4.414062 1.09375 C 6.773438 -0.902344 7.273438 -3.707031 7.355469 -6.054688 L 8.128906 -6.054688 C 8.074219 -2.53125 7.992188 -1.105469 7.753906 -0.796875 C 7.640625 -0.636719 7.523438 -0.59375 7.34375 -0.59375 C 7.09375 -0.59375 6.636719 -0.59375 6.121094 -0.636719 C 6.398438 -0.195312 6.589844 0.492188 6.613281 0.945312 C 7.195312 0.957031 7.765625 0.957031 8.152344 0.878906 C 8.574219 0.785156 8.871094 0.648438 9.167969 0.195312 C 9.441406 -0.195312 9.554688 -1.175781 9.632812 -3.386719 C 9.773438 -2.746094 9.886719 -2.144531 9.941406 -1.6875 Z M 11.355469 -2.050781 "/></g></g></g><g fill="#000000" fill-opacity="1"><g transform="translate(75.756845, 24.469445)"><g><path d="M 6.535156 -3.671875 L 6.535156 -2.417969 L 4.878906 -2.417969 L 4.878906 -3.671875 Z M 8.0625 -1.058594 L 8.0625 -5.015625 L 3.363281 -5.015625 L 3.363281 -0.34375 L 4.878906 -0.34375 L 4.878906 -1.058594 Z M 8.507812 -7.082031 L 2.851562 -7.082031 L 2.851562 -5.699219 L 8.507812 -5.699219 Z M 10.648438 -9.234375 L 0.773438 -9.234375 L 0.773438 1.082031 L 2.382812 1.082031 L 2.382812 -7.671875 L 9.019531 -7.671875 L 9.019531 -0.773438 C 9.019531 -0.59375 8.949219 -0.523438 8.757812 -0.511719 C 8.5625 -0.511719 7.902344 -0.511719 7.367188 -0.546875 C 7.605469 -0.125 7.855469 0.636719 7.914062 1.09375 C 8.859375 1.09375 9.519531 1.050781 10.011719 0.773438 C 10.5 0.511719 10.648438 0.0585938 10.648438 -0.753906 Z M 10.648438 -9.234375 "/></g></g></g><g fill="#000000" fill-opacity="1"><g transform="translate(87.147974, 24.469445)"><g><path d="M 10.957031 -4.253906 L 6.566406 -4.253906 L 6.566406 -7.433594 L 10.285156 -7.433594 L 10.285156 -9.074219 L 1.09375 -9.074219 L 1.09375 -7.433594 L 4.835938 -7.433594 L 4.835938 -4.253906 L 0.480469 -4.253906 L 0.480469 -2.578125 L 4.835938 -2.578125 L 4.835938 1.070312 L 6.566406 1.070312 L 6.566406 -2.578125 L 10.957031 -2.578125 Z M 1.722656 -6.726562 C 2.050781 -6.007812 2.359375 -5.0625 2.453125 -4.480469 L 4.070312 -4.984375 C 3.957031 -5.597656 3.589844 -6.488281 3.238281 -7.171875 Z M 8.757812 -4.527344 C 9.097656 -5.074219 9.53125 -5.90625 9.929688 -6.75 L 8.152344 -7.195312 C 7.96875 -6.488281 7.617188 -5.574219 7.296875 -4.949219 Z M 8.757812 -4.527344 "/></g></g></g><g fill="#000000" fill-opacity="1"><g transform="translate(98.539102, 24.469445)"><g><path d="M 10.820312 -5.460938 C 10.203125 -6.429688 8.824219 -7.84375 7.820312 -8.835938 L 6.535156 -7.96875 C 6.898438 -7.59375 7.285156 -7.171875 7.671875 -6.726562 L 3.625 -6.625 C 4.433594 -7.421875 5.234375 -8.359375 5.882812 -9.304688 L 4.207031 -10.023438 C 3.488281 -8.675781 2.292969 -7.320312 1.902344 -6.964844 C 1.527344 -6.613281 1.277344 -6.40625 0.933594 -6.328125 C 1.128906 -5.882812 1.402344 -5.0625 1.480469 -4.742188 C 2.167969 -4.972656 3.066406 -4.992188 8.882812 -5.246094 C 9.097656 -4.960938 9.28125 -4.675781 9.417969 -4.433594 Z M 7.890625 -2.507812 L 7.890625 -1.082031 L 3.421875 -1.082031 L 3.421875 -2.507812 Z M 1.722656 1.070312 L 3.421875 1.070312 L 3.421875 0.511719 L 7.890625 0.511719 L 7.890625 1.070312 L 9.679688 1.070312 L 9.679688 -4.09375 L 1.722656 -4.09375 Z M 1.722656 1.070312 "/></g></g></g></svg>